<svg id="Layer_1" data-name="Layer 1" xmlns="http://www.w3.org/2000/svg" viewBox="0 0 1200 1200"><defs><style>.cls-1{fill:none;}.cls-1,.cls-2,.cls-3,.cls-4,.cls-5{stroke:#231f20;stroke-miterlimit:10;stroke-width:14px;}.cls-2{fill:#f68b1f;}.cls-3{fill:#59ba47;}.cls-4{fill:#eed912;}.cls-5{fill:#ed1e7f;}</style></defs><circle class="cls-1" cx="597.88" cy="526.24" r="342.15"/><polygon class="cls-2" points="548.61 155.37 548.61 338.77 645.7 338.77 645.7 155.37 673.03 155.37 597.16 95.68 522.72 155.37 548.61 155.37"/><polygon class="cls-3" points="224.28 581.46 407.67 581.46 407.67 484.37 224.28 484.37 224.28 457.04 164.58 532.91 224.28 607.35 224.28 581.46"/><polygon class="cls-4" points="975.73 482.93 792.33 482.93 792.33 580.02 975.73 580.02 975.73 607.35 1035.42 531.47 975.73 457.04 975.73 482.93"/><polygon class="cls-5" points="647.14 897.39 647.14 713.99 550.05 713.99 550.05 897.39 522.72 897.39 598.6 957.08 673.03 897.39 647.14 897.39"/><polygon class="cls-4" points="434.75 414.61 509.12 641.46 643.92 599.75 567.94 387.41 434.75 414.61"/><polygon class="cls-3" points="495.41 447.91 569.78 674.76 704.59 633.05 628.61 420.71 495.41 447.91"/><polygon class="cls-5" points="539.34 399.88 613.71 626.73 748.51 585.02 672.53 372.68 539.34 399.88"/></svg>